<?xml version="1.0" encoding="UTF-8" standalone="no"?>
<!-- Created with Inkscape (http://www.inkscape.org/) -->

<svg
   width="1000mm"
   height="366.85184mm"
   viewBox="0 0 1000 366.85184"
   version="1.1"
   id="svg1"
   xmlns="http://www.w3.org/2000/svg"
   xmlns:svg="http://www.w3.org/2000/svg">
  <defs
     id="defs1" />
  <g
     id="layer1"
     style="display:inline"
     transform="translate(0,-316.57409)">
    <rect
       style="display:none;fill:#002d04;fill-opacity:1;stroke-width:0.23665"
       id="rect1"
       width="1000"
       height="1000"
       x="0.064198703"
       y="7.1054274e-15" />
    <rect
       style="display:inline;fill:#002d04;fill-opacity:1;stroke-width:0.143335"
       id="rect4"
       width="1000"
       height="366.85181"
       x="3.2211277e-14"
       y="316.5741" />
    <circle
       style="display:none;fill:#002d04;fill-opacity:1;stroke-width:0.276027"
       id="path4"
       cx="500"
       cy="500"
       r="400" />
    <g
       id="g2"
       transform="translate(-0.10513802,36.829168)">
      <g
         id="text2"
         style="font-size:141.111px;font-family:Lora;-inkscape-font-specification:Lora;letter-spacing:0px;fill:#002d04;stroke-width:0.264583"
         aria-label="Solderthal">
        <path
           style="font-weight:600;-inkscape-font-specification:'Lora Semi-Bold';display:inline;fill:#ffffff"
           d="m 216.62567,398.55045 q -0.98777,-7.47889 -4.09221,-12.98222 -3.10445,-5.64444 -8.32555,-8.60777 -5.08,-3.10444 -12.27666,-3.10444 -6.91444,0 -11.5711,3.95111 -4.51555,3.95111 -4.51555,9.73666 0,4.79777 2.68111,8.32555 2.82222,3.52777 8.04332,6.4911 5.22111,2.82222 12.41777,5.92666 5.36222,2.25778 10.86555,5.08 5.50333,2.68111 10.15999,6.49111 4.65666,3.80999 7.47888,8.88999 2.96333,4.93888 2.96333,11.85332 0,8.18444 -4.37444,14.53443 -4.23333,6.35 -12.13554,9.87777 -7.90222,3.52778 -18.62666,3.52778 -5.92666,0 -12.55887,-1.83445 -6.63222,-1.69333 -12.13555,-5.2211 l 0.42333,6.06777 h -9.59554 l -0.28223,-32.03219 h 8.04333 q 1.55222,11.99443 8.88999,18.20331 7.33778,6.06778 17.63888,6.06778 5.2211,0 9.31332,-1.83445 4.09222,-1.97555 6.35,-5.2211 2.39888,-3.38667 2.39888,-7.62 0,-5.50333 -3.38666,-9.0311 -3.38666,-3.52778 -8.60777,-6.06777 -5.22111,-2.54 -10.86555,-4.93889 -6.34999,-2.68111 -11.99443,-5.64444 -5.64444,-3.10444 -10.01888,-6.91444 -4.23333,-3.9511 -6.77333,-9.0311 -2.39889,-5.08 -2.39889,-11.99443 0,-4.09222 1.55223,-8.60777 1.55222,-4.65667 5.07999,-8.60778 3.66889,-3.9511 9.73666,-6.4911 6.06777,-2.54 15.09888,-2.54 5.64444,0 12.27665,1.69333 6.77333,1.55222 11.85333,5.22111 l -0.56445,-5.92666 h 9.73666 v 32.31442 z"
           id="path1" />
        <path
           style="font-weight:600;-inkscape-font-specification:'Lora Semi-Bold';display:inline;fill-opacity:0"
           d="m 276.45664,468.5415 q -10.01888,0 -18.20332,-4.37444 -8.18444,-4.51555 -12.98221,-12.55888 -4.65666,-8.18444 -4.65666,-19.04999 0,-11.42999 4.79777,-20.31998 4.79777,-8.88999 12.8411,-13.82888 8.18444,-4.93888 17.9211,-4.93888 10.01888,0 18.0622,4.51555 8.04333,4.51555 12.69999,12.55888 4.79778,8.04333 4.79778,19.04998 0,11.57111 -4.65667,20.4611 -4.51555,8.74888 -12.55887,13.68776 -7.90222,4.79778 -18.06221,4.79778 z m 0.70555,-8.60777 q 6.35,0 9.73666,-3.95111 3.38667,-3.95111 4.65667,-10.01888 1.41111,-6.20888 1.41111,-12.69999 0,-5.50333 -0.98778,-11.14777 -0.84667,-5.64444 -2.82222,-10.15999 -1.97556,-4.65666 -5.22111,-7.33777 -3.24555,-2.82222 -7.90221,-2.82222 -6.20889,0.14111 -9.87777,4.09222 -3.66889,3.9511 -5.36222,10.01888 -1.55222,6.06777 -1.55222,12.8411 0,7.61999 1.83444,14.95776 1.83444,7.19666 5.78555,11.85333 3.95111,4.51555 10.3011,4.37444 z"
           id="path2" />
        <path
           style="font-weight:600;-inkscape-font-specification:'Lora Semi-Bold';display:inline;fill:#ffffff"
           d="m 320.48333,458.80484 q 4.09222,0 5.78556,-1.69333 1.83444,-1.83445 2.11666,-5.08 0.42333,-3.24555 0.42333,-7.33777 v -60.95995 q 0,-2.39889 0.14111,-5.22111 0.14111,-2.96333 0.42334,-6.06777 -2.39889,0.14111 -5.22111,0.28222 -2.82222,0.14111 -4.79777,0.28223 v -9.17222 q 6.4911,0 10.58332,-0.56444 4.23333,-0.70556 6.49111,-1.69333 2.39888,-0.98778 3.38666,-1.83445 h 6.34999 l 0.14112,86.35993 q 0,2.25778 -0.14112,5.50333 -0.14111,3.10444 -0.56444,6.06777 2.39889,-0.28222 4.93889,-0.28222 2.53999,-0.14111 4.23333,-0.14111 v 9.0311 h -34.28998 z m 72.38993,9.73666 q -8.46666,0 -15.09888,-4.37444 -6.63222,-4.37444 -10.44221,-12.41777 -3.66889,-8.04333 -3.66889,-18.90887 0,-11.42999 4.51555,-20.31999 4.51555,-8.88999 12.41777,-13.96998 8.04333,-5.08 18.48554,-5.08 4.09222,0 7.61999,0.98778 3.66889,0.84666 6.35,1.97555 V 383.8749 q 0,-2.11666 0,-5.2211 0.14111,-3.10445 0.42333,-6.20889 -2.25778,0.14111 -5.22111,0.28222 -2.82222,0.14111 -4.79777,0.28223 v -9.17222 q 6.49111,0 10.58332,-0.56444 4.09222,-0.70556 6.35,-1.69333 2.39889,-0.98778 3.38666,-1.83445 h 6.49111 v 86.35993 q 0,2.11666 -0.14111,5.36222 -0.14111,3.10444 -0.42334,6.20888 2.39889,-0.28222 4.93889,-0.28222 2.68111,-0.14111 4.51555,-0.28222 v 9.17221 h -24.55331 q -0.28222,-1.69333 -0.56445,-3.38666 -0.14111,-1.83444 -0.42333,-3.38667 -4.37444,4.65667 -9.59555,6.77333 -5.2211,2.25778 -11.14776,2.25778 z m 6.63221,-10.86555 q 3.95111,0 7.62,-2.11666 3.66888,-2.25778 5.92666,-5.50333 -0.14111,-1.97556 -0.14111,-3.95111 0,-2.11666 0,-4.23333 l 0.14111,-36.12441 q -2.11667,-1.69334 -5.36222,-2.54 -3.24555,-0.98778 -6.63222,-0.98778 -6.63221,0.14111 -10.86554,4.23333 -4.09222,3.95111 -6.06778,10.44221 -1.83444,6.49111 -1.69333,14.1111 0,6.91444 1.83445,12.98222 1.83444,6.06777 5.50332,9.87776 3.81,3.81 9.73666,3.81 z m 83.1144,10.86555 q -10.15999,0 -18.06221,-4.51555 -7.90221,-4.65667 -12.27665,-12.98222 -4.37444,-8.46665 -4.37444,-19.89665 0,-9.87776 4.37444,-18.48554 4.37444,-8.60777 12.27665,-13.82887 8.04333,-5.36222 18.62665,-5.36222 5.92667,0 11.43,1.69333 5.50332,1.69333 9.87776,5.64444 4.37445,3.95111 6.91444,10.44221 2.68111,6.49111 2.54,15.80444 l -47.41329,0.84666 q 0,8.74888 1.97555,15.52221 2.11667,6.63222 6.77333,10.58333 4.65666,3.80999 12.27666,3.80999 3.38666,0 7.19666,-1.12889 3.9511,-1.26999 7.7611,-3.66888 3.81,-2.54 6.77333,-6.20889 l 5.36222,4.93889 q -4.65667,6.77333 -10.30111,10.44221 -5.64444,3.66889 -11.28888,4.93889 -5.64444,1.41111 -10.44221,1.41111 z m -15.3811,-49.10663 h 29.35109 q -0.14111,-5.64444 -1.69333,-9.45443 -1.41111,-3.95111 -4.23333,-5.92667 -2.82222,-2.11666 -6.91444,-2.11666 -6.91444,0 -11.14777,4.65666 -4.09222,4.51555 -5.36222,12.8411 z m 57.71432,39.36997 q 4.09222,0 5.78555,-1.69333 1.69333,-1.83445 2.11667,-5.08 0.42333,-3.24555 0.42333,-7.33777 v -26.52887 q 0,-2.53999 0.14111,-5.36221 0.14111,-2.82222 0.42333,-5.78555 -2.39888,0.14111 -5.2211,0.28222 -2.82222,0 -4.65667,0.14111 v -9.03111 h 5.22111 q 5.64444,0 9.45444,-1.26999 3.80999,-1.41111 5.36221,-2.82222 h 5.92667 q 0.28222,1.69333 0.42333,5.36221 0.14111,3.66889 0.14111,7.33778 3.24555,-4.23333 6.77333,-7.19667 3.52777,-3.10444 7.19666,-4.65666 3.80999,-1.69333 7.7611,-1.69333 4.51555,0 7.90222,2.54 3.52777,2.54 3.52777,8.18444 0,1.83444 -0.98777,3.9511 -0.84667,2.11667 -2.82222,3.52778 -1.83445,1.41111 -5.08,1.41111 -2.96333,0 -5.64444,-1.83445 -2.54,-1.97555 -2.68111,-6.20888 -2.96333,-0.14111 -6.20888,2.11667 -3.10444,2.25777 -5.64444,5.50332 -2.54,3.24556 -3.95111,6.63222 l 0.14111,26.81109 q 0,2.25778 -0.14111,5.50333 -0.14111,3.10444 -0.42333,6.06777 2.25777,-0.28222 4.79777,-0.28222 2.54,-0.14111 4.23333,-0.14111 v 9.0311 h -34.28997 z m 93.32142,9.73666 q -3.95111,0 -7.7611,-0.98778 -3.66889,-0.98778 -6.77333,-3.66888 -2.96333,-2.68111 -4.79777,-7.90222 -1.83445,-5.36222 -1.83445,-14.1111 l 0.28223,-36.40664 -10.01888,0.14112 v -9.87777 q 4.23332,-0.14112 8.18443,-2.82222 3.95111,-2.82222 6.91444,-7.33778 2.96333,-4.51555 3.95111,-9.59554 h 8.60777 l -0.14111,19.75554 h 19.89665 v 9.0311 l -19.89665,0.42333 -0.14111,36.26553 q 0,4.23333 0.70555,7.90221 0.84667,3.52778 2.82222,5.64444 2.11667,2.11667 5.64444,2.11667 2.68111,0 6.06777,-1.69333 3.52778,-1.69334 7.05555,-6.77333 l 5.78556,5.2211 q -3.52778,5.36222 -7.33778,8.32555 -3.66888,2.96333 -7.19666,4.37444 -3.38666,1.41111 -6.06777,1.69334 -2.68111,0.28222 -3.95111,0.28222 z m 72.67205,-9.73666 q 4.09222,0 5.78555,-1.69333 1.69333,-1.83445 2.11667,-5.08 0.42333,-3.24555 0.42333,-7.33777 v -20.03776 q -0.14111,-10.15999 -3.24555,-15.09888 -3.10445,-4.93888 -9.73666,-4.93888 -4.09222,0 -8.18444,1.83444 -3.95111,1.83444 -6.49111,4.51555 v 35.13664 q 0,2.25778 -0.14111,5.50333 -0.14111,3.10444 -0.56444,6.06777 2.39889,-0.28222 4.93888,-0.28222 2.54,-0.14111 4.23333,-0.14111 v 9.0311 h -34.28997 v -7.47888 q 4.09222,0 5.78555,-1.69333 1.83445,-1.83445 2.11667,-5.08 0.42333,-3.24555 0.42333,-7.33777 v -60.95995 q 0,-2.39889 0.14111,-5.22111 0.14111,-2.96333 0.42334,-6.06777 -2.39889,0.14111 -5.22111,0.28222 -2.82222,0.14111 -4.65666,0.28223 v -9.17222 q 6.4911,0 10.58332,-0.56444 4.09222,-0.70556 6.35,-1.69333 2.39888,-0.98778 3.38666,-1.83445 h 6.4911 V 401.796 q 2.82222,-2.39889 6.49111,-4.23333 3.81,-1.83444 7.7611,-2.96333 3.95111,-1.12889 7.19667,-1.12889 12.69998,0 18.0622,7.47888 5.50333,7.47889 5.50333,23.84776 l 0.14111,21.30776 q 0,2.25778 -0.14111,5.50333 -0.14111,3.10444 -0.42333,6.06777 2.25777,-0.28222 4.65666,-0.28222 2.54,-0.14111 4.37444,-0.14111 v 9.0311 h -34.28997 z m 83.96107,7.47888 q -0.42333,-2.11666 -0.56444,-3.52777 0,-1.55222 -0.14111,-3.52778 -4.79778,4.79778 -10.3011,7.05555 -5.36222,2.25778 -11.14777,2.25778 -9.59555,0 -14.81666,-5.22111 -5.07999,-5.22111 -5.07999,-12.8411 0,-6.77333 3.66888,-11.42999 3.66889,-4.79777 9.59555,-7.7611 5.92666,-3.10445 13.12332,-4.65667 7.19666,-1.69333 14.25221,-1.83444 v -7.7611 q 0,-4.09222 -0.98777,-7.47889 -0.84667,-3.52777 -3.24556,-5.50333 -2.39888,-2.11666 -7.05555,-2.11666 -3.10444,0.14111 -6.34999,1.41111 -3.10444,1.12889 -4.93889,3.66889 1.12889,1.26999 1.41111,2.82221 0.28223,1.41111 0.28223,2.54 0,2.54 -1.97556,5.36222 -1.97555,2.68111 -6.34999,2.54 -3.81,-0.14111 -5.92666,-2.68111 -1.97556,-2.54 -1.97556,-6.06777 0,-5.36222 3.81,-9.31333 3.95111,-4.09222 10.58332,-6.34999 6.63222,-2.39889 14.81666,-2.39889 12.13554,0 18.62665,6.34999 6.4911,6.35 6.34999,20.31999 0,4.93888 0,9.0311 0,3.95111 -0.14111,8.04333 0,3.95111 0,8.88999 0,2.11666 -0.14111,5.36222 -0.14111,3.10444 -0.42333,6.20888 2.54,-0.28222 5.07999,-0.28222 2.68111,-0.14111 4.37444,-0.28222 v 9.17221 z m -1.55222,-33.16108 q -4.23333,0.28222 -8.32555,1.41111 -4.09222,0.98778 -7.33777,2.82222 -3.24555,1.83444 -5.2211,4.65666 -1.83445,2.68111 -1.69334,6.20888 0.14111,4.37445 2.82222,6.49111 2.68111,1.97555 6.20889,1.97555 4.09222,0 7.33777,-1.69333 3.38666,-1.69333 6.20888,-4.51555 0,-1.41111 0,-2.96333 0,-1.55222 0,-3.10444 0,-1.97556 0,-4.93889 0,-2.96333 0,-6.34999 z m 32.59667,25.6822 q 4.09222,0 5.78556,-1.69333 1.83444,-1.83445 2.11666,-5.08 0.42333,-3.24555 0.42333,-7.33777 v -60.95995 q 0,-2.39889 0.14111,-5.22111 0.14111,-2.96333 0.42334,-6.06777 -2.39889,0.14111 -5.22111,0.28222 -2.82222,0.14111 -4.79777,0.28223 v -9.17222 q 6.4911,0 10.58332,-0.56444 4.23333,-0.70556 6.49111,-1.69333 2.39888,-0.98778 3.38666,-1.83445 h 6.34999 l 0.14112,86.35993 q 0,2.25778 -0.14112,5.50333 -0.14111,3.10444 -0.56444,6.06777 2.39889,-0.28222 4.93889,-0.28222 2.53999,-0.14111 4.23333,-0.14111 v 9.0311 h -34.28998 z"
           id="path5" />
      </g>
      <path
         style="font-size:75px;font-family:Roboto;-inkscape-font-specification:Roboto;letter-spacing:6.82625px;fill:#ffffff;stroke-width:0.264583"
         d="m 331.85779,560.11481 v 5.74951 h -28.23487 v -5.74951 z m -26.80664,-47.5708 v 53.32031 h -7.06787 v -53.32031 z m 23.07129,22.9248 v 5.74951 h -24.49952 v -5.74951 z m 3.36914,-22.9248 v 5.78613 h -27.86866 v -5.78613 z m 48.28132,47.5708 v 5.74951 h -26.66015 v -5.74951 z m -25.26855,-47.5708 v 53.32031 h -7.06787 v -53.32031 z m 74.02595,47.5708 v 5.74951 h -28.23486 v -5.74951 z m -26.80664,-47.5708 v 53.32031 h -7.06787 v -53.32031 z m 23.07129,22.9248 v 5.74951 h -24.49951 v -5.74951 z m 3.36914,-22.9248 v 5.78613 h -27.86865 v -5.78613 z m 48.13484,36.36474 h 7.03125 q -0.54931,5.05371 -2.89306,9.04541 -2.34375,3.9917 -6.62842,6.33545 -4.28467,2.30713 -10.69336,2.30713 -4.6875,0 -8.53271,-1.75781 -3.8086,-1.75781 -6.55518,-4.98047 -2.74658,-3.25928 -4.24805,-7.80029 -1.46484,-4.57764 -1.46484,-10.18067 v -5.31006 q 0,-5.60302 1.46484,-10.14404 1.50147,-4.57764 4.28467,-7.83691 2.81983,-3.25928 6.7749,-5.01709 3.95508,-1.75782 8.89893,-1.75782 6.04248,0 10.21728,2.27051 4.17481,2.27051 6.48194,6.29883 2.34375,3.9917 2.89306,9.26514 h -7.03125 q -0.51269,-3.73535 -1.90429,-6.40869 -1.3916,-2.70997 -3.95508,-4.17481 -2.56348,-1.46484 -6.70166,-1.46484 -3.55225,0 -6.26221,1.35498 -2.67334,1.35498 -4.50439,3.84521 -1.79444,2.49024 -2.70996,5.96924 -0.91553,3.479 -0.91553,7.72705 v 5.3833 q 0,3.91846 0.80566,7.36084 0.84229,3.44239 2.52686,6.04248 1.68457,2.6001 4.28467,4.10157 2.6001,1.46484 6.15234,1.46484 4.5044,0 7.17774,-1.42822 2.67334,-1.42823 4.02832,-4.10157 1.3916,-2.67334 1.97753,-6.40869 z m 42.09237,-36.36474 v 53.32031 h -6.95801 v -53.32031 z m 17.13867,0 v 5.78613 h -41.19873 v -5.78613 z m 14.73642,0 h 17.65137 q 6.00585,0 10.14404,1.83105 4.1748,1.83106 6.33545,5.41992 2.19726,3.55225 2.19726,8.75244 0,3.66211 -1.50146,6.70166 -1.46485,3.00293 -4.24805,5.12696 -2.74658,2.0874 -6.5918,3.11279 l -1.97753,0.76904 h -16.58936 l -0.0732,-5.74951 h 12.52441 q 3.8086,0 6.33545,-1.31836 2.52686,-1.35498 3.80859,-3.62549 1.28174,-2.2705 1.28174,-5.01709 0,-3.07617 -1.20849,-5.3833 -1.2085,-2.30713 -3.8086,-3.55224 -2.56347,-1.28174 -6.62841,-1.28174 h -10.5835 v 47.53418 h -7.06787 z m 31.16455,53.32031 -12.96387,-24.16992 7.36084,-0.0366 13.14697,23.76709 v 0.43945 z m 62.92975,-28.34473 v 3.36914 q 0,6.00586 -1.50147,10.7666 -1.50146,4.76075 -4.32129,8.09327 -2.81982,3.33252 -6.7749,5.09033 -3.91846,1.75781 -8.78906,1.75781 -4.72412,0 -8.6792,-1.75781 -3.91846,-1.75781 -6.81152,-5.09033 -2.85645,-3.33252 -4.43116,-8.09327 -1.5747,-4.76074 -1.5747,-10.7666 v -3.36914 q 0,-6.00586 1.53808,-10.72998 1.57471,-4.76074 4.43115,-8.09326 2.85645,-3.36914 6.77491,-5.12695 3.95508,-1.75782 8.6792,-1.75782 4.8706,0 8.78906,1.75782 3.95508,1.75781 6.7749,5.12695 2.85645,3.33252 4.35791,8.09326 1.53809,4.72412 1.53809,10.72998 z m -6.99463,3.36914 v -3.44238 q 0,-4.76074 -0.98877,-8.42285 -0.95215,-3.66211 -2.81983,-6.15235 -1.86767,-2.49023 -4.57763,-3.77197 -2.67334,-1.28174 -6.0791,-1.28174 -3.2959,0 -5.96924,1.28174 -2.63672,1.28174 -4.54102,3.77197 -1.86767,2.49024 -2.89306,6.15235 -1.02539,3.66211 -1.02539,8.42285 v 3.44238 q 0,4.79737 1.02539,8.4961 1.02539,3.66211 2.92968,6.18896 1.94092,2.49024 4.57764,3.77197 2.67334,1.28174 5.96924,1.28174 3.44238,0 6.11572,-1.28174 2.67334,-1.28173 4.5044,-3.77197 1.86767,-2.52685 2.81982,-6.18896 0.95215,-3.69873 0.95215,-8.4961 z m 65.38339,-28.34472 v 53.32031 h -7.10449 L 668.8017,524.73883 v 41.12549 h -7.06787 v -53.32031 h 7.06787 l 26.95312,41.23535 v -41.23535 z m 26.89459,0 v 53.32031 h -7.06787 v -53.32031 z m 51.83359,36.36474 h 7.03125 q -0.54932,5.05371 -2.89307,9.04541 -2.34375,3.9917 -6.62841,6.33545 -4.28467,2.30713 -10.69336,2.30713 -4.6875,0 -8.53272,-1.75781 -3.80859,-1.75781 -6.55517,-4.98047 -2.74659,-3.25928 -4.24805,-7.80029 -1.46484,-4.57764 -1.46484,-10.18067 v -5.31006 q 0,-5.60302 1.46484,-10.14404 1.50146,-4.57764 4.28467,-7.83691 2.81982,-3.25928 6.7749,-5.01709 3.95508,-1.75782 8.89893,-1.75782 6.04248,0 10.21728,2.27051 4.17481,2.27051 6.48193,6.29883 2.34375,3.9917 2.89307,9.26514 h -7.03125 q -0.51269,-3.73535 -1.9043,-6.40869 -1.3916,-2.70997 -3.95507,-4.17481 -2.56348,-1.46484 -6.70166,-1.46484 -3.55225,0 -6.26221,1.35498 -2.67334,1.35498 -4.5044,3.84521 -1.79443,2.49024 -2.70996,5.96924 -0.91552,3.479 -0.91552,7.72705 v 5.3833 q 0,3.91846 0.80566,7.36084 0.84228,3.44239 2.52686,6.04248 1.68457,2.6001 4.28466,4.10157 2.6001,1.46484 6.15235,1.46484 4.50439,0 7.17773,-1.42822 2.67334,-1.42823 4.02832,-4.10157 1.3916,-2.67334 1.97754,-6.40869 z m 51.87021,3.47901 q 0,-1.86768 -0.58594,-3.2959 -0.54931,-1.46485 -1.97754,-2.63672 -1.3916,-1.17188 -3.88183,-2.23389 -2.45362,-1.06201 -6.22559,-2.16064 -3.95508,-1.17188 -7.14111,-2.6001 -3.18604,-1.46484 -5.45655,-3.33252 -2.2705,-1.86768 -3.479,-4.28467 -1.2085,-2.41699 -1.2085,-5.52978 0,-3.1128 1.28174,-5.74951 1.28174,-2.63672 3.66211,-4.57764 2.41699,-1.97754 5.74951,-3.07617 3.33252,-1.09864 7.43409,-1.09864 6.00586,0 10.18066,2.30713 4.21143,2.27051 6.40869,5.96924 2.19727,3.66211 2.19727,7.83692 h -7.03125 q 0,-3.00293 -1.28174,-5.31006 -1.28174,-2.34375 -3.88184,-3.66211 -2.60009,-1.35498 -6.59179,-1.35498 -3.77198,0 -6.22559,1.13525 -2.45361,1.13526 -3.66211,3.07617 -1.17187,1.94092 -1.17187,4.43116 0,1.68457 0.6958,3.07617 0.73242,1.35498 2.23388,2.52685 1.53809,1.17188 3.88184,2.16065 2.38037,0.98877 5.67627,1.90429 4.54101,1.28174 7.83691,2.85645 3.2959,1.57471 5.41992,3.55225 2.16065,1.94091 3.18604,4.43115 1.06201,2.45361 1.06201,5.5664 0,3.25928 -1.31836,5.896 -1.31836,2.63672 -3.77197,4.50439 -2.45361,1.86768 -5.896,2.89307 -3.40576,0.98877 -7.61718,0.98877 -3.69873,0 -7.2876,-1.02539 -3.55225,-1.02539 -6.48194,-3.07617 -2.89306,-2.05078 -4.65087,-5.05371 -1.7212,-3.03955 -1.7212,-7.03125 h 7.03125 q 0,2.74658 1.06202,4.72412 1.06201,1.94092 2.89306,3.22265 1.86768,1.28174 4.21143,1.9043 2.38037,0.58594 4.94385,0.58594 3.69873,0 6.2622,-1.02539 2.56348,-1.02539 3.88184,-2.92969 1.35498,-1.9043 1.35498,-4.50439 z"
         id="text1"
         aria-label="ELECTRONICS" />
      <path
         id="path3"
         style="display:inline;fill:#cfaa01;fill-opacity:1;stroke-width:0.24671"
         d="m 276.3638,393.54159 a 37.500009,37.500009 0 0 0 -37.5,37.50001 37.500009,37.500009 0 0 0 37.5,37.5 37.500009,37.500009 0 0 0 37.5,-37.5 37.500009,37.500009 0 0 0 -37.5,-37.50001 z m 0,18.75001 a 18.750005,18.750005 0 0 1 18.75,18.75 18.750005,18.750005 0 0 1 -18.75,18.75 18.750005,18.750005 0 0 1 -18.75,-18.75 18.750005,18.750005 0 0 1 18.75,-18.75 z" />
      <path
         id="rect8"
         style="fill:#cfaa01;fill-opacity:1;stroke-width:0.174859"
         d="m 266.98866,449.7916 v 27.84533 c -0.006,2.47612 0.96982,4.85502 2.71094,6.61561 l 11.77655,11.77603 a 9.3751488,9.3751488 0 0 0 6.59288,2.76159 v 0.002 h 11.0417 l 5.2e-4,-5.2e-4 H 830.8669 a 9.3748846,9.3748846 0 0 0 9.37514,-9.37462 9.3748846,9.3748846 0 0 0 -9.37514,-9.37514 H 292.00522 l -6.26628,-6.26629 V 449.7916 Z" />
    </g>
  </g>
</svg>
